<svg width="512.002" height="512.002" xmlns="http://www.w3.org/2000/svg">

 <g>
  <title>background</title>
  <rect fill="none" id="canvas_background" height="402" width="582" y="-1" x="-1"/>
 </g>
 <g>
  <title>Layer 1</title>
  <g id="svg_1">
   <g id="svg_2">
    <path id="svg_4" d="m509.862,104.394c-2.95,-59.04 -51.681,-105.395 -110.795,-105.393c-56.951,0.074 -104.62,43.205 -110.372,99.865c-24.643,-9.667 -50.889,-14.597 -77.361,-14.531c-117.821,-0.001 -213.334,95.512 -213.334,213.333s95.513,213.333 213.333,213.333s213.333,-95.513 213.333,-213.333c0.057,-26.471 -4.877,-52.716 -14.542,-77.36c58.821,-5.892 102.688,-56.873 99.738,-115.914zm-463.065,300.076l97.011,-97.01c2.153,-2.154 2.998,-5.29 2.217,-8.233c-7.261,-27.34 1.068,-56.46 21.688,-75.826c20.62,-19.366 50.206,-25.852 77.037,-16.891l-36.675,36.6c-9.851,10.056 -9.832,26.15 0.042,36.183l12.158,12.158c10.06,9.834 26.138,9.816 36.175,-0.042l36.575,-36.567c9.001,26.83 2.526,56.436 -16.853,77.059c-19.379,20.623 -48.526,28.925 -75.864,21.608c-2.942,-0.805 -6.089,0.039 -8.233,2.208l-98.701,98.701c-18.304,-13.823 -34.065,-30.724 -46.577,-49.948zm164.536,89.464c-36.651,0.034 -72.57,-10.26 -103.64,-29.702l93.082,-93.082c35.529,7.51 72.204,-6.143 94.172,-35.06c21.968,-28.916 25.289,-67.909 8.528,-100.124c-1.254,-2.413 -3.584,-4.085 -6.272,-4.499c-2.688,-0.415 -5.413,0.476 -7.336,2.399l-45.449,45.434c-3.355,3.307 -8.739,3.326 -12.117,0.042l-12.083,-12.083c-3.299,-3.355 -3.318,-8.73 -0.042,-12.108l45.567,-45.475c1.926,-1.923 2.821,-4.649 2.407,-7.339c-0.413,-2.69 -2.084,-5.022 -4.499,-6.278c-11.726,-6.124 -24.625,-9.675 -37.833,-10.417c-29.235,-1.751 -57.612,10.244 -76.726,32.434s-26.776,52.029 -20.716,80.683l-90.536,90.536c-32.179,-60.819 -30.139,-134.051 5.376,-192.984s99.311,-94.949 168.118,-94.91c26.543,-0.062 52.814,5.349 77.173,15.894c3.74,55.372 47.826,99.458 103.197,103.2c10.531,24.363 15.942,50.631 15.896,77.173c-0.12,108.345 -87.921,196.146 -196.267,196.266zm187.734,-290.133c-51.841,0 -93.867,-42.026 -93.867,-93.867s42.026,-93.867 93.867,-93.867c51.841,0 93.867,42.026 93.867,93.867c-0.059,51.817 -42.05,93.808 -93.867,93.867z"/>
    <path transform="rotate(-45 399.0659790039062,107.95314025878906) " id="svg_5" d="m411.133,107.934l36.634,-36.634c1.6,-1.6 2.5,-3.77 2.5,-6.033c0,-2.263 -0.899,-4.433 -2.5,-6.033c-1.6,-1.601 -3.77,-2.5 -6.033,-2.5s-4.433,0.899 -6.033,2.5l-36.633,36.633l-36.634,-36.633c-3.341,-3.281 -8.701,-3.256 -12.012,0.054c-3.311,3.311 -3.335,8.671 -0.054,12.012l36.632,36.634l-36.634,36.634c-2.178,2.151 -3.037,5.304 -2.251,8.262c0.786,2.958 3.097,5.269 6.055,6.055s6.111,-0.073 8.262,-2.251l36.634,-36.633l36.634,36.634c2.151,2.178 5.304,3.037 8.262,2.251c2.958,-0.786 5.269,-3.097 6.055,-6.055s-0.073,-6.111 -2.251,-8.262l-36.633,-36.635z"/>
   </g>
  </g>
  <g id="svg_6"/>
  <g id="svg_7"/>
  <g id="svg_8"/>
  <g id="svg_9"/>
  <g id="svg_10"/>
  <g id="svg_11"/>
  <g id="svg_12"/>
  <g id="svg_13"/>
  <g id="svg_14"/>
  <g id="svg_15"/>
  <g id="svg_16"/>
  <g id="svg_17"/>
  <g id="svg_18"/>
  <g id="svg_19"/>
  <g id="svg_20"/>
 </g>
</svg>